<svg xmlns="http://www.w3.org/2000/svg" width="100" height="100" viewBox="0 0 100 100">
  <rect width="100" height="100" rx="20" ry="20" fill="#C47A4A"/>
  <g transform="scale(1)">
    <path d="M97.28 17.36L98.96 17.36Q97.76 20.48 96.48 24.92Q95.20 29.36 93.84 35.76L92.08 35.76Q92.72 31.60 92.52 28.76Q92.32 25.92 91.28 23.92Q89.76 20.88 86.92 19.28Q84.08 17.68 80.80 17.68Q76.64 17.68 72.72 20.12Q68.80 22.56 65.44 26.72Q62.08 30.88 59.52 36.12Q56.96 41.36 55.52 47Q54.08 52.64 54.08 58Q54.08 65.84 57.16 69.76Q60.24 73.68 65.52 73.68Q68.88 73.68 72.84 72.08Q76.80 70.48 79.76 67.44Q81.92 65.28 83.48 62.36Q85.04 59.44 86.96 54.80L88.72 54.80Q86.72 62.08 85.64 66.52Q84.56 70.96 84 74L82.24 74Q82.48 72.32 82.48 71.28Q82.48 69.44 81.84 69.24Q81.20 69.04 79.84 69.92Q77.68 71.36 75.52 72.52Q73.36 73.68 70.80 74.40Q68.24 75.12 64.72 75.12Q55.92 75.12 51 70.36Q46.08 65.60 46.08 56.32Q46.08 50.88 47.76 45.24Q49.44 39.60 52.56 34.40Q55.68 29.20 60 25.12Q64.32 21.04 69.60 18.64Q74.88 16.24 80.96 16.24Q84.40 16.24 86.56 17Q88.72 17.76 90.20 18.92Q91.68 20.08 92.88 21.44Q94 22.56 95 21.72Q96 20.88 97.28 17.36" fill="#FAF7F2"/>
    <circle cx="78" cy="68" r="9" fill="#FAF7F2"/>
  </g>
</svg>